<?xml version="1.0" standalone="no"?>
<!DOCTYPE svg PUBLIC "-//W3C//DTD SVG 20010904//EN"
 "http://www.w3.org/TR/2001/REC-SVG-20010904/DTD/svg10.dtd">
<svg version="1.0" xmlns="http://www.w3.org/2000/svg"
 width="1699.000000pt" height="417.000000pt" viewBox="0 0 1699.000000 417.000000"
 preserveAspectRatio="xMidYMid meet">

<g transform="translate(0.000000,417.000000) scale(0.100000,-0.100000)"
fill="#000000" stroke="none">
<path d="M15448 3790 c-35 -36 -36 -17 16 -307 53 -294 55 -316 66 -673 11
-396 14 -423 49 -462 32 -36 84 -41 125 -14 41 26 46 52 36 188 l-8 123 30 29
c29 26 35 28 102 24 64 -3 76 -7 119 -41 59 -45 88 -53 128 -37 39 17 59 46
59 90 0 46 -16 68 -89 122 -72 55 -143 72 -264 66 l-84 -4 -7 125 c-9 160 -19
243 -57 461 -42 243 -56 296 -87 320 -39 31 -97 27 -134 -10z"/>
<path d="M1898 3580 c-27 -28 -29 -35 -23 -73 4 -23 10 -470 13 -992 7 -883 8
-953 25 -978 32 -49 121 -52 160 -5 18 21 18 66 15 992 -3 919 -4 973 -22
1014 -33 76 -114 96 -168 42z"/>
<path d="M470 3523 c-29 -24 -31 -30 -27 -72 3 -25 10 -65 16 -89 14 -54 -2
-591 -19 -639 -9 -25 -9 -41 0 -68 21 -63 -3 -300 -56 -565 -20 -96 -38 -209
-41 -250 -5 -71 -4 -77 22 -108 22 -26 34 -32 67 -32 21 0 48 5 59 10 26 15
49 62 49 104 0 19 16 114 36 212 20 97 41 219 48 272 l12 95 105 -149 c59 -82
154 -220 213 -306 59 -87 117 -164 129 -173 28 -20 81 -19 112 1 14 9 30 33
36 53 9 31 8 43 -6 71 -23 44 -266 396 -439 635 l-137 190 6 130 c4 72 7 234
8 360 2 225 1 231 -21 267 -51 81 -114 100 -172 51z"/>
<path d="M14674 3526 l-28 -23 -1 -279 c-1 -191 -5 -292 -13 -319 -20 -62 -44
-115 -54 -115 -14 0 -48 -64 -48 -92 0 -30 -120 -297 -178 -396 -64 -109 -76
-166 -47 -221 28 -55 110 -64 153 -18 11 12 25 39 30 59 6 21 26 64 46 97 20
32 56 102 81 155 24 53 47 96 50 96 2 0 21 -33 41 -72 51 -101 131 -224 161
-248 38 -30 88 -26 124 9 45 45 40 87 -20 180 -27 42 -83 141 -125 220 l-77
144 21 51 c41 99 52 165 57 368 3 108 2 236 -2 284 -6 78 -10 91 -35 116 -37
37 -96 39 -136 4z"/>
<path d="M13501 3518 c-13 -7 -33 -25 -44 -40 -24 -32 -22 -50 49 -447 24
-134 41 -247 38 -250 -12 -13 -216 -19 -631 -20 l-431 -1 -42 68 c-90 143
-159 203 -275 239 -38 11 -69 29 -86 48 -33 37 -94 41 -130 10 -33 -30 -60
-98 -57 -147 1 -24 -4 -81 -10 -128 -25 -178 -11 -360 33 -435 31 -53 110
-128 163 -156 53 -27 175 -41 252 -28 30 5 56 9 57 9 2 0 21 16 43 36 32 29
45 52 65 116 14 43 25 99 25 122 l0 44 493 5 c270 3 506 9 524 12 25 6 32 3
37 -12 3 -10 10 -171 17 -358 6 -187 14 -382 17 -433 l7 -92 -170 0 c-411 -1
-525 -60 -565 -293 -16 -87 -7 -140 36 -226 40 -80 83 -122 168 -162 55 -26
72 -29 162 -29 153 0 259 40 324 123 36 46 71 139 96 255 13 63 24 117 24 121
0 5 19 13 42 20 23 7 54 26 71 42 32 32 32 28 8 254 -6 55 -15 244 -21 420
-11 362 -21 480 -56 680 -13 77 -41 240 -62 363 -34 194 -42 227 -63 247 -30
30 -76 40 -108 23z m-1334 -669 c49 -31 113 -135 113 -185 0 -26 7 -51 20 -67
11 -14 20 -40 20 -59 0 -40 -17 -105 -30 -113 -5 -3 -34 -2 -66 1 -46 6 -65
14 -96 42 -21 19 -42 50 -48 70 -11 42 -13 174 -3 275 6 68 6 68 32 62 14 -4
40 -15 58 -26z m1318 -1396 c-4 -16 -13 -55 -20 -89 -18 -84 -48 -149 -80
-170 -19 -13 -54 -19 -116 -22 -77 -4 -92 -2 -122 17 -35 21 -77 92 -77 129 0
10 7 41 15 69 12 40 21 53 45 63 44 18 122 27 249 29 l113 1 -7 -27z"/>
<path d="M2868 3461 c-124 -7 -146 -19 -155 -88 -5 -35 -1 -45 25 -74 l31 -34
224 3 c146 2 239 -1 267 -8 l42 -11 -7 -42 c-4 -23 -21 -96 -37 -162 -29 -120
-78 -412 -78 -466 0 -62 45 -109 106 -109 38 0 94 59 94 99 0 55 50 344 81
466 18 69 33 158 36 210 5 108 -9 140 -80 174 -99 48 -234 58 -549 42z"/>
<path d="M10499 3401 c-20 -20 -29 -40 -29 -61 0 -17 -7 -44 -15 -61 -11 -20
-18 -81 -24 -192 -9 -159 -36 -319 -67 -392 -23 -55 -18 -82 24 -126 52 -56
107 -69 313 -76 l166 -6 -33 -91 c-62 -174 -125 -264 -232 -335 -77 -50 -126
-66 -294 -95 -47 -8 -94 -47 -101 -83 -8 -40 17 -89 53 -108 29 -15 77 -16
479 -12 248 3 466 9 491 15 75 17 113 90 80 153 -22 41 -64 51 -158 40 -98
-12 -353 -15 -336 -3 16 11 85 109 125 177 54 92 122 280 114 316 l-7 29 101
0 c113 0 143 8 167 46 28 42 22 93 -15 126 l-31 28 -333 0 c-182 0 -338 4
-345 9 -11 7 -10 26 8 107 13 59 25 164 30 259 5 88 9 161 10 162 0 1 165 4
366 5 l366 3 30 34 c26 29 30 39 25 75 -4 27 -15 49 -32 63 l-26 23 -420 0
-421 0 -29 -29z"/>
<path d="M4993 3408 c-12 -6 -29 -25 -37 -42 -13 -28 -13 -43 -1 -127 34 -220
46 -373 55 -693 8 -266 7 -342 -3 -354 -7 -9 -12 -46 -12 -96 0 -111 30 -189
102 -267 72 -77 119 -99 214 -99 136 0 218 42 265 136 16 33 20 66 22 207 l3
167 92 1 c51 0 113 2 138 3 93 4 187 -10 240 -38 80 -41 134 -33 164 24 33 65
8 113 -84 159 -92 47 -126 52 -350 51 l-209 0 -5 238 c-5 242 -32 500 -59 550
-15 28 -57 52 -92 52 -30 0 -82 -42 -90 -73 -3 -13 4 -84 15 -158 15 -97 22
-203 26 -384 l5 -250 -78 -25 c-44 -14 -84 -26 -90 -28 -8 -2 -13 79 -17 265
-4 147 -13 327 -21 399 -20 172 -45 323 -57 345 -23 44 -86 61 -136 37z m390
-1465 c-22 -17 -109 -17 -119 -1 -4 7 -8 35 -9 63 -1 27 -5 71 -9 96 l-8 47
78 30 79 30 3 -126 c2 -111 0 -128 -15 -139z"/>
<path d="M7180 3373 c-11 -8 -25 -31 -31 -52 -14 -49 8 -97 54 -116 42 -17
234 -25 607 -25 l305 0 -3 -87 c-2 -49 -17 -153 -34 -233 -41 -196 -44 -225
-24 -255 9 -13 33 -29 54 -36 51 -15 97 8 118 57 44 106 83 343 85 517 2 154
-7 192 -54 221 -33 21 -1048 29 -1077 9z"/>
<path d="M6262 3125 c-38 -32 -48 -72 -29 -117 23 -54 27 -105 37 -473 6 -192
17 -429 26 -525 9 -96 17 -289 19 -428 3 -281 4 -285 71 -298 47 -9 85 14 112
66 23 44 24 48 18 270 -3 124 -13 304 -21 400 -8 96 -20 333 -25 525 -10 361
-19 456 -46 525 -32 79 -104 104 -162 55z"/>
<path d="M7237 2370 c-22 -14 -47 -63 -47 -94 0 -13 11 -37 24 -53 49 -59 27
-57 936 -61 602 -2 842 0 861 9 35 14 63 70 54 108 -3 16 -17 39 -31 52 l-26
24 -831 6 c-458 4 -852 10 -877 13 -26 4 -52 2 -63 -4z"/>
<path d="M12833 2373 c-12 -2 -34 -18 -48 -34 -35 -43 -34 -92 4 -130 l29 -29
340 0 c327 0 340 1 365 20 55 43 42 130 -23 162 -31 16 -68 18 -340 17 -168
-1 -315 -4 -327 -6z"/>
<path d="M4205 2203 c-77 -1 -273 -10 -435 -20 -318 -19 -1297 -26 -1376 -9
-37 7 -44 6 -73 -20 -45 -41 -51 -90 -17 -131 56 -66 52 -66 678 -60 336 3
658 11 798 20 129 9 370 18 535 22 l300 7 28 26 c52 49 30 136 -40 163 -14 5
-78 8 -142 7 -64 -2 -179 -4 -256 -5z"/>
<path d="M15360 1888 c-61 -31 -134 -135 -135 -193 -1 -30 -11 -53 -38 -90
-20 -27 -53 -81 -74 -120 -32 -61 -37 -79 -37 -140 -1 -82 22 -126 89 -170 63
-41 189 -77 275 -78 64 -2 84 2 132 26 91 44 179 159 235 305 21 54 26 86 27
163 1 86 -1 99 -24 133 -31 45 -114 109 -192 149 -84 42 -194 48 -258 15z
m220 -226 l55 -38 -1 -53 c-2 -71 -60 -185 -121 -242 -43 -39 -47 -41 -91 -34
-25 4 -70 16 -100 27 -63 24 -63 29 6 132 71 103 83 128 77 155 -4 16 3 36 20
63 25 38 29 40 63 34 20 -3 61 -23 92 -44z"/>
<path d="M7518 1728 c-37 -35 -38 -85 -3 -126 39 -46 93 -52 491 -52 l354 0 7
-27 c4 -16 7 -62 7 -103 l1 -75 -75 -11 c-42 -5 -81 -13 -87 -17 -6 -4 -80
-11 -164 -16 -85 -6 -227 -20 -317 -33 -130 -18 -167 -20 -182 -10 -25 15 -91
15 -110 -1 -47 -39 -55 -58 -62 -156 -4 -53 -10 -119 -13 -146 -6 -46 -4 -54
20 -83 33 -40 78 -63 165 -87 55 -15 119 -19 411 -22 l345 -5 31 26 c37 31 46
69 27 114 -24 58 -48 62 -366 62 -242 0 -392 9 -418 25 -4 2 -5 17 -2 33 l4
28 166 23 c92 13 239 27 327 32 262 15 332 26 392 60 71 41 89 67 103 151 13
77 9 168 -14 288 -15 77 -44 119 -95 139 -16 6 -196 11 -471 13 l-445 3 -27
-27z"/>
<path d="M10656 1674 c-52 -17 -197 -112 -221 -147 -19 -27 -19 -76 -1 -102 8
-12 15 -60 18 -120 7 -130 24 -169 103 -244 79 -74 147 -101 266 -108 116 -7
152 1 201 45 51 46 72 93 89 201 11 73 11 94 -3 163 -21 100 -46 149 -111 216
-58 60 -90 79 -162 98 -64 17 -117 17 -179 -2z m147 -198 c75 -31 128 -142
113 -235 -17 -97 -13 -91 -64 -91 -73 0 -123 19 -165 61 l-39 39 4 94 c2 74 7
98 22 114 28 32 80 39 129 18z"/>
<path d="M2891 1559 c-52 -49 -46 -124 13 -160 29 -18 54 -19 422 -19 429 0
404 4 404 -59 0 -35 -22 -54 -85 -74 -61 -19 -281 -37 -470 -39 -136 -1 -140
-2 -166 -27 -18 -18 -29 -45 -38 -91 -7 -36 -22 -92 -33 -125 -28 -78 -30
-171 -5 -209 10 -15 44 -40 75 -54 l57 -27 458 0 459 0 24 28 c33 38 33 96 0
134 l-24 28 -426 5 c-234 3 -427 7 -428 10 -1 3 6 33 15 68 l18 62 87 0 c257
0 500 42 580 99 49 34 90 105 98 168 7 60 -16 194 -42 245 -31 60 -17 58 -514
58 -449 0 -457 0 -479 -21z"/>
<path d="M1299 1541 c-37 -38 -39 -85 -4 -132 13 -19 35 -50 48 -69 13 -19 41
-55 61 -78 39 -47 62 -114 69 -200 4 -51 2 -55 -32 -88 -20 -18 -39 -34 -43
-34 -3 0 -29 -31 -58 -70 -34 -46 -59 -70 -72 -70 -37 0 -140 63 -170 104 -37
51 -39 132 -5 188 63 105 103 167 130 201 53 68 31 152 -45 171 -50 13 -93
-14 -143 -90 -150 -225 -165 -259 -165 -378 0 -75 3 -90 35 -154 44 -87 104
-143 211 -197 146 -73 249 -59 335 46 24 30 76 86 115 124 96 94 108 119 106
226 -2 137 -46 287 -97 329 -10 8 -34 39 -55 70 -21 30 -54 72 -73 93 -29 31
-41 37 -77 37 -33 0 -48 -6 -71 -29z"/>
<path d="M5537 1470 c-37 -23 -44 -60 -46 -232 -2 -159 -1 -169 23 -215 29
-58 101 -127 159 -154 54 -24 209 -26 287 -3 166 49 192 180 74 375 -61 101
-144 180 -221 210 -66 25 -245 38 -276 19z m223 -215 c14 -7 35 -24 47 -37 27
-30 93 -139 93 -155 0 -9 -21 -13 -74 -13 -66 0 -78 3 -105 26 -30 25 -31 28
-31 116 0 99 0 99 70 63z"/>
</g>
</svg>
