<?xml version="1.0" standalone="no"?>
<!DOCTYPE svg PUBLIC "-//W3C//DTD SVG 20010904//EN"
 "http://www.w3.org/TR/2001/REC-SVG-20010904/DTD/svg10.dtd">
<svg version="1.0" xmlns="http://www.w3.org/2000/svg"
 width="1000.000000pt" height="300.000000pt" viewBox="0 0 1000.000000 300.000000"
 preserveAspectRatio="xMidYMid meet">

<g transform="translate(0.000000,300.000000) scale(0.100000,-0.100000)"
fill="#000000" stroke="none">
<path d="M290 2440 c0 -113 1 -120 20 -120 16 0 20 7 20 34 0 19 8 44 18 56
l17 21 30 -53 c20 -35 38 -54 53 -56 12 -2 22 -1 22 2 0 2 -18 35 -39 72 l-40
68 35 42 c39 48 41 54 17 54 -10 0 -39 -23 -65 -52 l-47 -53 -1 53 c0 45 -3
52 -20 52 -19 0 -20 -7 -20 -120z"/>
<path d="M500 2441 c0 -114 1 -121 20 -121 17 0 20 7 20 45 0 38 3 45 20 45
14 0 27 -14 42 -45 17 -34 28 -45 45 -45 13 0 23 2 23 4 0 2 -11 24 -25 48
-25 45 -25 45 -5 63 24 22 27 87 5 105 -8 7 -44 15 -80 18 l-65 5 0 -122z
m115 44 c0 -27 -3 -30 -37 -33 -38 -3 -38 -3 -38 33 0 36 0 36 38 33 34 -3 37
-6 37 -33z"/>
<path d="M1521 2012 c-8 -14 0 -22 42 -43 l52 -25 3 -332 2 -332 25 0 c36 0
40 35 40 395 l0 320 -35 11 c-67 21 -119 24 -129 6z"/>
<path d="M3874 2015 c-8 -20 -7 -21 47 -48 l44 -22 3 -129 c2 -97 -1 -131 -10
-138 -7 -4 -66 -8 -131 -8 l-119 0 3 117 c4 117 3 118 -21 130 -14 6 -45 13
-70 15 -59 4 -66 -20 -15 -50 l35 -21 0 -81 0 -80 -170 0 -170 0 0 75 c0 85
-3 89 -87 98 -45 5 -54 3 -63 -12 -8 -15 -3 -21 29 -36 l39 -17 7 -230 8 -229
26 3 c18 2 27 10 29 26 l3 22 215 0 c190 0 215 2 221 16 3 10 0 22 -8 28 -11
8 -14 30 -11 92 l4 81 41 0 c23 0 81 4 130 8 l87 8 0 -135 c0 -175 7 -228 30
-228 10 0 21 8 26 18 8 17 23 676 16 699 -3 10 -38 21 -130 38 -24 5 -34 3
-38 -10z m-234 -465 l0 -100 -170 0 -170 0 0 100 0 100 170 0 170 0 0 -100z"/>
<path d="M7757 2023 c-17 -16 -3 -34 41 -56 l47 -23 3 -67 3 -67 -141 0 c-111
0 -140 -3 -140 -13 0 -8 18 -22 39 -32 34 -15 48 -16 104 -6 35 6 80 11 100
11 l37 0 0 -104 0 -103 -52 -7 c-29 -3 -92 -6 -139 -6 l-86 0 5 75 c4 66 2 81
-22 129 -45 93 -121 135 -241 135 -118 0 -195 -42 -240 -132 -47 -96 -30 -203
46 -279 103 -103 274 -104 388 -2 l50 45 32 -16 c26 -14 39 -15 75 -6 23 6 75
11 113 11 l71 0 0 -120 0 -120 25 0 c18 0 27 7 32 28 5 15 8 178 8 362 l0 335
-35 11 c-49 16 -116 25 -123 17z m-385 -193 c109 -31 168 -160 119 -265 -31
-69 -93 -105 -178 -105 -125 0 -209 107 -181 234 23 106 129 166 240 136z"/>
<path d="M8856 2014 c-8 -20 -10 -17 34 -39 75 -37 70 -13 70 -367 l0 -319 22
3 c27 4 34 31 44 176 l7 102 108 0 c84 0 111 3 123 16 20 19 20 28 1 44 -14
12 -46 11 -182 -6 l-53 -6 -2 188 -3 188 -40 12 c-81 23 -122 25 -129 8z"/>
<path d="M2740 1944 c-27 -10 -109 -13 -345 -13 -338 1 -357 -3 -263 -49 42
-21 53 -23 100 -13 29 5 152 11 273 13 l220 3 3 -38 c4 -43 -24 -244 -38 -283
l-10 -25 -382 1 c-234 1 -384 -2 -386 -8 -4 -12 39 -40 86 -56 28 -10 47 -10
91 0 38 9 189 15 495 18 380 4 442 7 451 20 6 10 6 19 -2 27 -15 15 -133 28
-161 18 -13 -5 -48 -9 -79 -9 -48 0 -54 2 -48 18 18 46 56 190 66 250 6 37 15
75 20 84 7 12 2 22 -17 37 -30 24 -27 23 -74 5z"/>
<path d="M5080 1944 c-27 -10 -109 -13 -345 -13 -337 1 -354 -2 -263 -49 42
-21 51 -23 100 -14 29 6 154 12 278 14 l225 3 -3 -50 c-4 -74 -33 -257 -44
-278 -9 -17 -32 -18 -389 -15 -343 3 -379 1 -379 -13 0 -10 22 -26 55 -41 53
-24 59 -25 112 -12 40 9 185 14 497 18 380 4 442 7 451 20 6 10 6 19 -1 26
-17 17 -132 30 -161 19 -13 -5 -48 -9 -78 -9 l-53 0 24 74 c13 41 32 116 43
168 11 51 23 103 26 115 6 17 1 25 -24 37 -16 9 -31 15 -33 15 -2 -1 -19 -7
-38 -15z"/>
<path d="M6500 1928 c-30 -4 -161 -7 -290 -6 -208 3 -235 1 -238 -13 -2 -11 8
-19 30 -25 l33 -10 6 -119 c4 -66 7 -126 8 -132 0 -7 10 -22 21 -33 18 -18 33
-20 135 -20 l115 0 0 -80 0 -81 -262 2 c-292 1 -309 -3 -208 -53 54 -26 56
-26 120 -13 47 10 182 15 500 18 385 4 435 6 444 20 28 44 -22 49 -351 32
l-173 -8 0 81 0 82 68 0 c38 0 110 3 160 6 87 7 92 8 92 30 0 20 -6 23 -55 29
-37 5 -66 3 -86 -5 -21 -9 -95 -13 -237 -14 l-207 -1 -3 126 -3 126 53 6 c29
4 157 7 285 7 222 0 232 1 238 20 3 11 3 24 0 30 -7 12 -118 11 -195 -2z"/>
<path d="M8427 1926 c-4 -11 6 -28 29 -49 l36 -32 -22 -55 c-46 -116 -142
-253 -257 -366 -40 -40 -73 -75 -73 -78 0 -38 170 88 255 189 27 33 59 72 70
87 l20 28 133 -120 c134 -121 172 -142 172 -97 0 32 -54 105 -87 118 -29 11
-183 136 -183 149 0 4 11 32 24 61 46 106 42 124 -32 155 -60 25 -79 27 -85
10z"/>
<path d="M1085 1919 c-4 -6 9 -26 30 -44 42 -39 42 -40 -16 -156 -49 -98 -137
-215 -233 -308 -76 -73 -88 -91 -62 -91 38 0 248 188 304 273 13 20 27 37 31
37 3 0 68 -54 145 -121 97 -84 144 -119 159 -117 11 2 22 8 24 13 6 19 -56
105 -84 117 -16 7 -70 45 -121 85 l-92 74 18 37 c11 20 27 60 37 89 18 50 18
53 1 72 -17 19 -94 51 -122 51 -7 0 -16 -5 -19 -11z"/>
<path d="M2724 1347 c-12 -7 -129 -11 -316 -11 -318 -1 -339 -5 -253 -45 37
-17 52 -20 87 -12 24 5 135 11 248 13 l205 3 3 -72 c2 -40 2 -74 0 -75 -2 -1
-133 -5 -292 -8 -292 -5 -336 -12 -261 -39 l35 -12 0 -84 c0 -123 -22 -116
361 -113 l314 3 3 26 c3 25 0 26 -53 33 -33 4 -64 2 -75 -4 -11 -6 -117 -13
-237 -17 -256 -7 -246 -11 -241 94 l3 68 264 5 c263 5 293 9 258 39 -14 11
-13 31 13 146 5 24 5 44 -1 51 -15 18 -44 23 -65 11z"/>
<path d="M5066 1348 c-13 -7 -120 -12 -315 -15 -163 -2 -296 -6 -295 -11 1
-13 89 -52 104 -46 20 9 459 24 478 16 11 -4 13 -19 9 -68 -2 -34 -8 -67 -11
-73 -5 -8 -95 -11 -291 -11 -177 0 -286 -4 -290 -10 -3 -5 10 -17 29 -27 l36
-17 0 -78 c0 -126 -22 -119 358 -116 l317 3 3 26 c3 25 0 27 -52 33 -33 5 -63
3 -75 -3 -22 -13 -405 -27 -444 -17 -26 6 -27 8 -27 86 l0 80 260 0 c230 0
261 2 267 16 3 9 0 20 -7 24 -10 6 -10 25 4 97 16 87 16 88 -5 106 -25 20 -28
20 -53 5z"/>
<path d="M1304 1296 c-131 -41 -191 -187 -129 -313 42 -84 117 -125 230 -125
123 1 197 39 240 125 65 131 0 277 -141 316 -51 14 -149 13 -200 -3z m189 -50
c67 -27 114 -116 101 -187 -11 -55 -32 -87 -76 -117 -35 -22 -52 -27 -107 -27
-102 0 -162 44 -182 134 -17 78 26 167 96 197 39 17 127 18 168 0z"/>
<path d="M3697 1300 c-121 -31 -180 -101 -181 -216 0 -133 104 -223 260 -224
99 0 202 58 238 134 20 42 21 135 2 179 -18 44 -62 86 -113 109 -50 22 -153
31 -206 18z m158 -59 c87 -39 124 -128 90 -217 -46 -121 -249 -141 -329 -32
-29 41 -33 125 -8 175 43 83 154 117 247 74z"/>
<path d="M7560 1301 c-174 -57 -226 -245 -104 -368 121 -121 368 -86 435 62
35 76 17 183 -40 242 -43 45 -101 66 -186 69 -44 2 -91 0 -105 -5z m167 -52
c65 -25 106 -88 106 -165 0 -102 -70 -164 -183 -164 -113 0 -180 63 -180 169
0 75 37 135 100 160 34 13 122 14 157 0z"/>
<path d="M8629 1282 c-74 -38 -111 -93 -117 -171 -6 -78 11 -125 63 -177 101
-100 284 -98 386 5 57 57 75 120 58 203 -9 42 -21 62 -58 98 -55 54 -101 70
-204 70 -62 0 -83 -5 -128 -28z m231 -45 c50 -26 90 -90 90 -144 0 -138 -172
-220 -292 -140 -79 53 -92 183 -25 256 51 55 152 68 227 28z"/>
<path d="M6265 1261 c-134 -35 -201 -135 -170 -255 18 -68 72 -119 151 -142
107 -31 248 -7 318 55 33 29 56 88 56 144 0 118 -97 198 -249 203 -42 2 -89 0
-106 -5z m166 -52 c45 -15 96 -65 110 -106 35 -107 -71 -212 -203 -201 -113
10 -173 64 -173 158 0 68 29 114 89 141 46 21 126 25 177 8z"/>
</g>
</svg>
